<svg id="Layer_1" enable-background="new 0 0 505.08 505.08" height="512" viewBox="0 0 505.08 505.08" width="512" xmlns="http://www.w3.org/2000/svg"><g><path d="m137.116 99.25c-8.837 0-16-7.164-16-16v-67.25c0-8.836 7.163-16 16-16s16 7.164 16 16v67.25c0 8.836-7.163 16-16 16z" fill="#d3d1d1"/></g><g><path d="m202.065 99.25c-8.837 0-16-7.164-16-16v-67.25c0-8.836 7.163-16 16-16s16 7.164 16 16v67.25c0 8.836-7.163 16-16 16z" fill="#d3d1d1"/></g><g><path d="m303.015 99.25c-8.837 0-16-7.164-16-16v-67.25c0-8.836 7.163-16 16-16s16 7.164 16 16v67.25c0 8.836-7.163 16-16 16z" fill="#d3d1d1"/></g><g><path d="m367.964 99.25c-8.837 0-16-7.164-16-16v-67.25c0-8.836 7.163-16 16-16s16 7.164 16 16v67.25c0 8.836-7.163 16-16 16z" fill="#d3d1d1"/></g><g><path d="m137.116 505.08c-8.837 0-16-7.164-16-16v-67.25c0-8.836 7.163-16 16-16s16 7.164 16 16v67.25c0 8.837-7.163 16-16 16z" fill="#d3d1d1"/></g><g><path d="m202.065 505.08c-8.837 0-16-7.164-16-16v-67.25c0-8.836 7.163-16 16-16s16 7.164 16 16v67.25c0 8.837-7.163 16-16 16z" fill="#d3d1d1"/></g><g><path d="m303.015 505.08c-8.837 0-16-7.164-16-16v-67.25c0-8.836 7.163-16 16-16s16 7.164 16 16v67.25c0 8.837-7.163 16-16 16z" fill="#d3d1d1"/></g><g><path d="m367.964 505.08c-8.837 0-16-7.164-16-16v-67.25c0-8.836 7.163-16 16-16s16 7.164 16 16v67.25c0 8.837-7.163 16-16 16z" fill="#d3d1d1"/></g><g><path d="m489.08 153.116h-67.249c-8.837 0-16-7.164-16-16s7.163-16 16-16h67.249c8.837 0 16 7.164 16 16s-7.163 16-16 16z" fill="#d3d1d1"/></g><g><path d="m489.08 218.065h-67.249c-8.837 0-16-7.164-16-16s7.163-16 16-16h67.249c8.837 0 16 7.164 16 16s-7.163 16-16 16z" fill="#d3d1d1"/></g><g><path d="m489.08 319.015h-67.249c-8.837 0-16-7.164-16-16s7.163-16 16-16h67.249c8.837 0 16 7.164 16 16s-7.163 16-16 16z" fill="#d3d1d1"/></g><g><path d="m489.08 383.964h-67.249c-8.837 0-16-7.164-16-16s7.163-16 16-16h67.249c8.837 0 16 7.164 16 16s-7.163 16-16 16z" fill="#d3d1d1"/></g><g><path d="m83.249 153.116h-67.249c-8.837 0-16-7.164-16-16s7.163-16 16-16h67.249c8.837 0 16 7.164 16 16s-7.163 16-16 16z" fill="#d3d1d1"/></g><g><path d="m83.249 218.065h-67.249c-8.837 0-16-7.164-16-16s7.163-16 16-16h67.249c8.837 0 16 7.164 16 16s-7.163 16-16 16z" fill="#d3d1d1"/></g><g><path d="m83.249 319.015h-67.249c-8.837 0-16-7.164-16-16s7.163-16 16-16h67.249c8.837 0 16 7.164 16 16s-7.163 16-16 16z" fill="#d3d1d1"/></g><g><path d="m83.249 383.964h-67.249c-8.837 0-16-7.164-16-16s7.163-16 16-16h67.249c8.837 0 16 7.164 16 16s-7.163 16-16 16z" fill="#d3d1d1"/></g><g><path d="m375.913 67.25h-246.746c-34.142 0-61.918 27.776-61.918 61.917v246.746c0 34.142 27.776 61.917 61.918 61.917h246.746c34.142 0 61.918-27.776 61.918-61.917v-246.746c0-34.142-27.776-61.917-61.918-61.917z" fill="#d3d1d1"/></g><g><path d="m307.063 320.83c57.571-17.48 99.865-23.719 130.769-22.662v-169.001c0-34.142-27.776-61.917-61.918-61.917h-246.747c-34.142 0-61.918 27.776-61.918 61.917v221.294c66.459 4.451 147.243-1.524 239.814-29.631z" fill="#e0e0e0"/></g><g><path d="m230.026 167.004c89.432 37.542 158.33 39.042 207.805 28.57v-66.407c0-34.142-27.776-61.917-61.918-61.917h-246.746c-33.804 0-61.35 27.233-61.892 60.91 50.237 3.645 105.6 14.853 162.751 38.844z" fill="#eaeaea"/></g><g><path d="m327.719 140.175h-150.358c-20.505 0-37.187 16.682-37.187 37.187v150.357c0 20.505 16.682 37.187 37.187 37.187h150.357c20.505 0 37.187-16.682 37.187-37.187v-150.358c0-20.505-16.681-37.186-37.186-37.186z" fill="#c69a85"/></g><g><path d="m364.905 177.361c0-20.505-16.682-37.187-37.187-37.187h-150.357c-20.505 0-37.187 16.682-37.187 37.187v42.599c26.037 1.578 50.907 8.244 70.592 23.404 35.108 27.037 97.362 17.815 154.138.093v-66.096z" fill="#dfb7a4"/></g></svg>