<?xml version="1.0" encoding="iso-8859-1"?>
<!-- Generator: Adobe Illustrator 19.0.0, SVG Export Plug-In . SVG Version: 6.00 Build 0)  -->
<svg version="1.1" id="Capa_1" xmlns="http://www.w3.org/2000/svg" xmlns:xlink="http://www.w3.org/1999/xlink" x="0px" y="0px"
	 viewBox="0 0 512 512" style="enable-background:new 0 0 512 512;" xml:space="preserve">
<rect x="7.504" y="12.537" style="fill:#EFEFEF;" width="437.59" height="486.93"/>
<path style="fill:#DEE0E0;" d="M445.097,113.248v301.444c-23.947,12.8-51.295,20.045-80.333,20.045
	c-94.323,0-170.778-76.455-170.778-170.766S270.441,93.204,364.764,93.204C393.802,93.204,421.15,100.448,445.097,113.248z"/>
<rect x="7.504" y="12.537" style="fill:#00C3FF;" width="437.59" height="55.979"/>
<rect x="7.5" y="469.77" style="fill:#DEE0E0;" width="437.6" height="29.69"/>
<rect x="62.2" y="140.1" style="fill:#00C3FF;" width="56.975" height="56.975"/>
<rect x="62.2" y="248.4" style="fill:#B1E36C;" width="56.975" height="56.975"/>
<rect x="62.2" y="356.69" style="fill:#FB4E7B;" width="56.975" height="56.975"/>
<circle style="fill:#FEDC63;" cx="364.76" cy="263.97" r="139.74"/>
<circle style="fill:#FFE497;" cx="364.76" cy="263.97" r="71.79"/>
<path d="M62.196,204.578h56.975c4.142,0,7.5-3.358,7.5-7.5v-56.976c0-4.142-3.358-7.5-7.5-7.5H62.196c-4.142,0-7.5,3.358-7.5,7.5
	v56.976C54.696,201.22,58.054,204.578,62.196,204.578z M69.696,147.603h41.975v41.976H69.696V147.603z"/>
<path d="M159.618,147.603h42.231c4.142,0,7.5-3.358,7.5-7.5s-3.358-7.5-7.5-7.5h-42.231c-4.142,0-7.5,3.358-7.5,7.5
	S155.476,147.603,159.618,147.603z"/>
<path d="M54.696,305.372c0,4.142,3.358,7.5,7.5,7.5h56.975c4.142,0,7.5-3.358,7.5-7.5v-56.976c0-4.142-3.358-7.5-7.5-7.5H62.196
	c-4.142,0-7.5,3.358-7.5,7.5V305.372z M69.696,255.896h41.975v41.976H69.696V255.896z"/>
<path d="M159.618,255.896h42.231c4.142,0,7.5-3.358,7.5-7.5s-3.358-7.5-7.5-7.5h-42.231c-4.142,0-7.5,3.358-7.5,7.5
	S155.476,255.896,159.618,255.896z"/>
<path d="M54.696,413.666c0,4.142,3.358,7.5,7.5,7.5h56.975c4.142,0,7.5-3.358,7.5-7.5V356.69c0-4.142-3.358-7.5-7.5-7.5H62.196
	c-4.142,0-7.5,3.358-7.5,7.5V413.666z M69.696,364.19h41.975v41.976H69.696V364.19z"/>
<path d="M159.618,364.19h42.231c4.142,0,7.5-3.358,7.5-7.5s-3.358-7.5-7.5-7.5h-42.231c-4.142,0-7.5,3.358-7.5,7.5
	S155.476,364.19,159.618,364.19z"/>
<path d="M279.767,421.166c4.142,0,7.5-3.358,7.5-7.5s-3.358-7.5-7.5-7.5H159.618c-4.142,0-7.5,3.358-7.5,7.5s3.358,7.5,7.5,7.5
	H279.767z"/>
<path d="M512,263.97c0-48.295-23.373-91.231-59.4-118.097V12.54c0-4.142-3.358-7.5-7.5-7.5H7.5c-4.142,0-7.5,3.358-7.5,7.5V270
	c0,4.142,3.358,7.5,7.5,7.5s7.5-3.358,7.5-7.5V76.017h294.667c4.142,0,7.5-3.358,7.5-7.5s-3.358-7.5-7.5-7.5H15V20.04h422.6v40.977
	h-96.267c-4.142,0-7.5,3.358-7.5,7.5s3.358,7.5,7.5,7.5H437.6v60.029c-21.493-12.287-46.361-19.317-72.842-19.317
	c-41.19,0-78.477,17.008-105.226,44.362h-99.915c-4.142,0-7.5,3.358-7.5,7.5s3.358,7.5,7.5,7.5h87.071
	c-3.223,4.319-6.208,8.824-8.95,13.488h-78.121c-4.142,0-7.5,3.358-7.5,7.5s3.358,7.5,7.5,7.5h70.423
	c-8.045,18.177-12.524,38.27-12.524,59.392c0,1.813,0.045,3.616,0.11,5.414h-58.009c-4.142,0-7.5,3.358-7.5,7.5s3.358,7.5,7.5,7.5
	h59.321c0.636,4.565,1.478,9.065,2.524,13.488h-61.845c-4.142,0-7.5,3.358-7.5,7.5s3.358,7.5,7.5,7.5h66.258
	c9.025,25.557,24.909,47.904,45.44,64.806H159.618c-4.142,0-7.5,3.358-7.5,7.5s3.358,7.5,7.5,7.5h120.149
	c2.909,0,5.426-1.659,6.67-4.081c22.7,14.317,49.558,22.615,78.322,22.615c26.481,0,51.348-7.031,72.842-19.317V491.96H15V302.74
	c0-4.142-3.358-7.5-7.5-7.5s-7.5,3.358-7.5,7.5v196.72c0,4.142,3.358,7.5,7.5,7.5h437.6c4.142,0,7.5-3.358,7.5-7.5V382.068
	C488.627,355.201,512,312.265,512,263.97z M364.758,396.212c-72.918,0-132.242-59.323-132.242-132.242
	s59.323-132.242,132.242-132.242S497,191.052,497,263.97S437.677,396.212,364.758,396.212z"/>
<path d="M453.829,212.796c-2.066-3.59-6.652-4.826-10.242-2.758c-3.59,2.066-4.825,6.652-2.758,10.242
	c7.613,13.226,11.638,28.334,11.638,43.691c0,48.363-39.346,87.708-87.708,87.708s-87.708-39.346-87.708-87.708
	s39.346-87.708,87.708-87.708c21.194,0,41.653,7.66,57.607,21.569c3.122,2.722,7.859,2.397,10.582-0.725
	c2.722-3.123,2.397-7.86-0.725-10.582c-18.687-16.291-42.646-25.263-67.465-25.263c-56.634,0-102.708,46.075-102.708,102.708
	s46.075,102.708,102.708,102.708s102.708-46.075,102.708-102.708C467.467,245.991,462.751,228.295,453.829,212.796z"/>
<path d="M359.172,240.772h19.934c0.542,0,0.982,0.441,0.982,0.982c0,4.142,3.358,7.5,7.5,7.5s7.5-3.358,7.5-7.5
	c0-8.813-7.17-15.982-15.982-15.982h-6.284v-11.725c0-4.142-3.358-7.5-7.5-7.5s-7.5,3.358-7.5,7.5v11.766
	c-12.396,0.702-22.267,11.006-22.267,23.576c0,13.022,10.594,23.617,23.617,23.617h12.3c4.751,0,8.617,3.865,8.617,8.617
	s-3.865,8.617-8.617,8.617h-19.934c-0.542,0-0.983-0.441-0.983-0.982c0-4.142-3.358-7.5-7.5-7.5s-7.5,3.358-7.5,7.5
	c0,8.813,7.17,15.982,15.983,15.982h6.284v11.725c0,4.142,3.358,7.5,7.5,7.5s7.5-3.358,7.5-7.5v-11.766
	c12.396-0.702,22.267-11.006,22.267-23.576c0-13.022-10.594-23.617-23.617-23.617h-12.3c-4.751,0-8.617-3.865-8.617-8.617
	S354.42,240.772,359.172,240.772z"/>
<path d="M181.083,33.027c-4.142,0-7.5,3.358-7.5,7.5s3.358,7.5,7.5,7.5h9.458c4.142,0,7.5-3.358,7.5-7.5s-3.358-7.5-7.5-7.5H181.083
	z"/>
<path d="M221.571,33.027c-4.142,0-7.5,3.358-7.5,7.5s3.358,7.5,7.5,7.5h9.459c4.142,0,7.5-3.358,7.5-7.5s-3.358-7.5-7.5-7.5H221.571
	z"/>
<path d="M262.059,33.027c-4.142,0-7.5,3.358-7.5,7.5s3.358,7.5,7.5,7.5h9.459c4.142,0,7.5-3.358,7.5-7.5s-3.358-7.5-7.5-7.5H262.059
	z"/>
<g>
</g>
<g>
</g>
<g>
</g>
<g>
</g>
<g>
</g>
<g>
</g>
<g>
</g>
<g>
</g>
<g>
</g>
<g>
</g>
<g>
</g>
<g>
</g>
<g>
</g>
<g>
</g>
<g>
</g>
</svg>
